<svg xmlns="http://www.w3.org/2000/svg" viewBox="0 0 512 512">
  <defs>
    <linearGradient id="g" x1="0" x2="1" y1="0" y2="1">
      <stop offset="0%" stop-color="#0f766e"/>
      <stop offset="100%" stop-color="#0b5f58"/>
    </linearGradient>
  </defs>
  <rect width="512" height="512" rx="96" fill="url(#g)"/>
  <circle cx="256" cy="256" r="132" fill="#fff6e3"/>
  <path d="M256 132l39 23v46l-39 23-39-23v-46zm-104 60l39 23v46l-39 23-39-23v-46zm208 0l39 23v46l-39 23-39-23v-46zm-104 120l39 23v46l-39 23-39-23v-46zm-104 0l39 23v46l-39 23-39-23v-46zm208 0l39 23v46l-39 23-39-23v-46z" fill="#0f766e" opacity=".92"/>
</svg>
